<?xml version="1.0" encoding="UTF-8" standalone="no"?>
<svg xmlns="http://www.w3.org/2000/svg" version="1.2" baseProfile="tiny" height="901" width="1664" viewBox="0 0 1664 901"><g stroke-linejoin="round" stroke-linecap="round" fill="none" stroke="black"><path stroke-width="6" d="M363,188c0,0 0,0 0,0 "/><path stroke-width="7" d="M363,188c0,0 0,0 0,0 0,3 0,3 0,6 "/><path stroke-width="5" d="M363,194c-1,15 0,15 -3,30 "/><path stroke-width="3" d="M360,224c-3,20 -4,20 -10,40 -8,23 -7,23 -18,44 -12,21 -13,21 -27,40 "/><path stroke-width="4" d="M305,348c-9,13 -10,13 -20,26 -4,6 -7,13 -8,12 "/><path stroke-width="5" d="M277,386c-2,-3 -2,-11 1,-20 "/><path stroke-width="4" d="M278,366c4,-13 6,-13 14,-25 "/><path stroke-width="3" d="M292,341c11,-17 10,-18 24,-32 11,-11 13,-10 27,-19 "/><path stroke-width="4" d="M343,290c18,-12 18,-11 37,-23 9,-5 8,-7 18,-12 "/><path stroke-width="5" d="M398,255c3,-2 5,-1 7,-1 "/><path stroke-width="6" d="M405,254c1,1 0,2 -1,3 "/><path stroke-width="5" d="M404,257c-8,11 -9,11 -17,21 "/><path stroke-width="4" d="M387,278c-8,10 -9,9 -15,19 -6,10 -10,12 -10,21 "/><path stroke-width="5" d="M362,318c0,5 5,4 10,7 5,3 5,4 10,6 3,1 3,0 6,0 "/><path stroke-width="6" d="M449,212c0,0 0,0 0,0 "/><path stroke-width="7" d="M449,212c0,0 0,0 0,0 0,0 0,0 0,0 0,4 0,4 0,8 "/><path stroke-width="5" d="M449,220c-1,13 -1,13 -3,25 "/><path stroke-width="4" d="M446,245c-2,14 -2,14 -5,28 -3,11 -3,11 -6,22 "/><path stroke-width="5" d="M435,295c-1,2 -4,6 -3,4 3,-4 5,-8 10,-15 "/><path stroke-width="4" d="M442,284c9,-9 9,-9 18,-18 15,-14 15,-15 30,-27 8,-6 8,-5 16,-10 "/><path stroke-width="5" d="M471,302c0,0 0,0 0,0 "/><path stroke-width="7" d="M471,302c0,0 0,0 0,0 0,0 -1,0 0,1 "/><path stroke-width="6" d="M471,303c6,5 6,5 13,9 "/><path stroke-width="5" d="M484,312c6,5 7,4 12,10 2,2 1,3 3,6 "/><path stroke-width="6" d="M431,332c0,0 0,0 0,0 "/><path stroke-width="7" d="M431,332c0,0 0,0 0,0 -3,0 -3,-2 -5,0 "/><path stroke-width="5" d="M426,332c-12,8 -11,11 -22,20 "/><path stroke-width="3" d="M404,352c-19,15 -20,14 -38,29 -25,20 -25,21 -49,41 "/><path stroke-width="5" d="M317,422c-2,1 -2,1 -3,3 "/><path stroke-width="6" d="M453,378c0,0 0,0 0,0 "/><path stroke-width="7" d="M453,378c0,0 0,0 0,0 1,1 0,1 2,2 "/><path stroke-width="6" d="M455,380c5,2 6,2 12,3 5,2 6,1 11,3 1,1 1,1 1,2 "/><path stroke-width="7" d="M391,419c0,0 0,0 0,0 0,0 0,0 0,0 0,0 0,0 0,0 "/><path stroke-width="6" d="M391,419c6,-2 6,-2 13,-3 "/><path stroke-width="4" d="M404,416c15,-2 15,-2 30,-4 17,-3 17,-2 34,-4 "/><path stroke-width="5" d="M468,408c3,-1 3,0 6,-1 "/><path stroke-width="6" d="M398,455c0,0 0,0 0,0 "/><path stroke-width="7" d="M398,455c0,0 0,0 0,0 0,0 0,0 0,0 1,1 2,1 3,3 "/><path stroke-width="6" d="M401,458c3,4 3,5 6,9 2,3 2,7 4,7 "/><path stroke-width="5" d="M411,474c2,-1 2,-4 4,-9 "/><path stroke-width="6" d="M415,465c1,-5 0,-6 2,-10 2,-4 5,-7 6,-6 "/><path stroke-width="5" d="M423,449c1,2 -1,6 0,11 0,4 0,4 2,7 "/><path stroke-width="6" d="M425,467c2,3 3,5 7,4 "/><path stroke-width="5" d="M432,471c6,-1 7,-3 13,-7 7,-3 8,-3 15,-7 4,-4 5,-6 9,-8 "/><path stroke-width="6" d="M469,449c0,0 0,2 -1,3 "/><path stroke-width="5" d="M468,452c-7,7 -7,8 -16,14 "/><path stroke-width="4" d="M452,466c-23,17 -24,16 -48,32 -6,4 -5,5 -12,8 -13,5 -14,4 -27,9 -6,2 -12,4 -12,5 "/><path stroke-width="5" d="M353,520c-1,1 6,0 11,-2 "/><path stroke-width="4" d="M364,518c21,-4 21,-4 42,-9 "/><path stroke-width="3" d="M406,509c27,-7 27,-6 54,-13 18,-5 17,-6 35,-12 "/><path stroke-width="4" d="M495,484c4,-1 4,-1 8,-2 "/><path stroke-width="6" d="M763,217c0,0 0,0 0,0 "/><path stroke-width="7" d="M763,217c0,0 0,0 0,0 "/><path stroke-width="6" d="M763,217c0,6 2,6 0,12 "/><path stroke-width="4" d="M763,229c-8,16 -11,15 -21,30 "/><path stroke-width="3" d="M742,259c-7,12 -6,13 -13,24 "/><path stroke-width="4" d="M729,283c-10,12 -23,20 -21,23 1,3 13,-6 26,-13 "/><path stroke-width="3" d="M734,293c20,-9 20,-9 39,-19 15,-7 15,-7 30,-15 "/><path stroke-width="4" d="M803,259c11,-5 13,-6 21,-10 "/><path stroke-width="5" d="M824,249c1,-1 -2,0 -2,2 "/><path stroke-width="6" d="M822,251c-2,2 -1,3 -3,6 -3,8 -4,8 -8,16 "/><path stroke-width="5" d="M811,273c-5,8 -5,9 -10,17 "/><path stroke-width="4" d="M801,290c-9,12 -8,12 -18,23 -11,13 -12,12 -24,23 -16,15 -16,15 -33,29 "/><path stroke-width="3" d="M726,365c-17,15 -18,15 -36,30 -15,12 -14,13 -30,25 -20,14 -20,13 -40,26 -17,10 -17,11 -35,20 -17,8 -17,7 -35,14 "/><path stroke-width="5" d="M699,339c0,0 0,0 0,0 "/><path stroke-width="7" d="M699,339c0,0 0,0 0,0 2,3 1,4 4,6 "/><path stroke-width="5" d="M703,345c11,6 11,5 23,10 "/><path stroke-width="4" d="M726,355c9,4 9,4 19,8 "/><path stroke-width="5" d="M745,363c10,4 10,4 21,7 "/><path stroke-width="6" d="M752,416c0,0 0,0 0,0 "/><path stroke-width="7" d="M752,416c-1,2 -1,2 -1,4 "/><path stroke-width="6" d="M751,420c0,1 -1,1 -1,3 "/><path stroke-width="5" d="M750,423c0,13 0,13 -1,26 "/><path stroke-width="4" d="M749,449c0,16 -1,16 -2,32 0,10 -1,18 -1,21 "/><path stroke-width="5" d="M746,502c1,2 2,-6 3,-12 "/><path stroke-width="4" d="M749,490c3,-25 3,-25 5,-51 1,-6 1,-6 1,-11 "/><path stroke-width="5" d="M755,428c1,-8 0,-9 2,-15 0,-2 1,-2 3,-2 "/><path stroke-width="6" d="M760,411c5,-1 5,-1 10,-1 "/><path stroke-width="5" d="M770,410c9,0 9,0 17,1 6,0 6,0 13,1 4,0 4,0 9,2 "/><path stroke-width="6" d="M809,414c2,0 2,0 3,2 1,2 1,2 1,4 0,5 1,5 0,9 "/><path stroke-width="5" d="M813,429c-2,6 -2,6 -6,11 -6,10 -5,10 -13,19 -7,8 -8,7 -16,13 "/><path stroke-width="4" d="M778,472c-5,5 -5,6 -11,11 "/><path stroke-width="5" d="M767,483c-3,2 -3,2 -6,3 "/><path stroke-width="6" d="M761,486c0,1 -1,1 -1,1 "/><path stroke-width="7" d="M760,487c0,0 1,0 2,0 "/><path stroke-width="6" d="M762,487c3,-1 3,-1 7,-3 7,-2 7,-3 14,-6 "/><path stroke-width="5" d="M783,478c10,-3 10,-4 20,-7 "/><path stroke-width="4" d="M803,471c10,-3 10,-3 19,-5 "/><path stroke-width="5" d="M822,466c8,-2 8,-2 17,-3 4,-1 4,-1 7,-1 "/><path stroke-width="6" d="M846,462c1,0 2,0 2,1 "/><path stroke-width="7" d="M848,463c0,0 0,0 -1,1 "/><path stroke-width="6" d="M847,464c-3,2 -4,2 -8,4 "/><path stroke-width="6" d="M1175,487c0,0 0,0 0,0 "/><path stroke-width="7" d="M1175,487c0,0 0,0 0,0 "/><path stroke-width="6" d="M1175,487c-4,0 -4,0 -9,0 "/><path stroke-width="4" d="M1166,487c-16,0 -16,-2 -32,0 -14,1 -15,1 -27,7 -10,4 -15,7 -16,14 -2,6 3,10 11,12 "/><path stroke-width="5" d="M1102,520c15,3 16,-1 33,-3 4,-1 5,-1 9,-3 10,-6 11,-6 21,-14 "/><path stroke-width="4" d="M1165,500c6,-5 6,-6 12,-12 "/><path stroke-width="5" d="M1177,488c2,-2 4,-4 4,-4 "/><path stroke-width="6" d="M1181,484c1,1 0,4 -1,7 "/><path stroke-width="5" d="M1180,491c-3,9 -2,9 -6,18 "/><path stroke-width="4" d="M1174,509c-5,13 -5,13 -10,26 -9,22 -8,23 -18,45 "/><path stroke-width="3" d="M1146,580c-9,20 -10,20 -20,40 -10,21 -8,22 -20,42 -8,14 -9,14 -20,26 "/><path stroke-width="4" d="M1086,688c-15,17 -13,20 -31,33 -14,10 -16,8 -33,12 -11,3 -13,5 -22,1 -11,-3 -15,-5 -19,-15 -5,-10 -4,-14 0,-26 5,-16 7,-17 19,-31 "/><path stroke-width="3" d="M1000,662c14,-17 15,-17 33,-31 23,-19 24,-17 49,-35 23,-16 23,-16 46,-32 "/><path stroke-width="4" d="M1215,570c0,0 0,0 0,0 "/><path stroke-width="6" d="M1215,570c-1,2 -1,2 -3,3 -1,1 -2,1 -3,2 "/><path stroke-width="5" d="M1209,575c-3,7 -2,8 -5,15 -2,5 -3,4 -5,9 "/><path stroke-width="6" d="M1254,523c0,0 0,0 0,0 "/><path stroke-width="7" d="M1254,523c0,0 0,0 0,0 1,2 2,1 3,3 "/><path stroke-width="6" d="M1257,526c2,4 1,4 3,8 2,4 1,4 3,8 "/><path stroke-width="6" d="M1350,595c0,0 0,0 0,0 "/><path stroke-width="7" d="M1350,595c0,0 0,0 0,0 -2,-1 -2,0 -3,-2 "/><path stroke-width="6" d="M1347,593c-4,-5 -2,-6 -6,-11 "/><path stroke-width="5" d="M1341,582c-4,-5 -4,-5 -9,-8 -7,-4 -8,-9 -15,-7 "/><path stroke-width="4" d="M1317,567c-9,2 -10,6 -18,15 -9,9 -10,9 -17,20 -5,9 -4,10 -6,20 "/><path stroke-width="5" d="M1276,622c-2,5 -5,9 -2,11 2,2 6,0 11,-3 8,-4 8,-5 16,-10 12,-8 13,-7 25,-17 6,-5 5,-6 11,-12 1,-2 1,-2 3,-3 "/><path stroke-width="6" d="M1340,588c1,-1 2,-1 2,-1 -1,4 -2,5 -3,9 "/><path stroke-width="5" d="M1339,596c-2,8 -3,7 -5,15 -2,15 -2,15 -3,31 0,2 -1,3 0,5 5,4 6,5 12,7 6,3 7,4 13,3 5,0 5,-3 9,-5 "/><path stroke-width="6" d="M1392,599c0,0 0,0 0,0 "/><path stroke-width="7" d="M1392,599c0,0 0,0 0,0 0,0 0,0 0,0 -2,1 -3,0 -4,2 "/><path stroke-width="6" d="M1388,601c-3,7 -2,8 -3,15 "/><path stroke-width="5" d="M1385,616c-3,8 -4,8 -5,17 0,8 1,8 3,16 2,4 1,5 5,7 6,3 7,1 14,1 8,-1 9,-1 17,-4 6,-3 7,-4 12,-9 6,-7 6,-7 10,-16 3,-7 2,-8 2,-16 0,-4 -1,-4 -2,-8 "/><path stroke-width="6" d="M1441,604c-1,-4 -1,-5 -3,-8 -2,-3 -3,-3 -6,-4 -3,-2 -3,-2 -6,-2 -3,0 -4,0 -7,0 -3,1 -3,2 -6,3 -5,2 -6,1 -11,3 "/><path stroke-width="5" d="M1402,596c-6,3 -6,3 -11,6 -8,5 -8,4 -16,9 -4,3 -4,3 -9,7 -2,1 -2,1 -4,3 "/></g></svg>